<svg width="711" height="994" viewBox="0 0 711 994" fill="none" xmlns="http://www.w3.org/2000/svg">
<mask id="path-1-outside-1_118_4" maskUnits="userSpaceOnUse" x="-0.846802" y="-0.998955" width="711" height="995" fill="black">
<rect fill="white" x="-0.846802" y="-0.998955" width="711" height="995"/>
<path d="M614.089 989.001C387.254 989.001 238.486 989.001 11.0818 988.483C14.5204 985.639 18.546 983.718 18.6603 977.901C19.3016 945.253 34.1376 916.756 45.7478 887.225C50.7594 874.477 58.8013 869.985 72.1324 869.8C114.572 869.213 157 867.813 199.431 866.657C202.696 866.568 205.947 865.933 209.204 865.552C165.17 857.746 120.674 856.521 77.0911 848.762C77.1713 847.146 77.2515 845.53 77.3317 843.914C171.206 841.359 265.08 838.804 358.954 836.249C277.553 829.916 195.929 830.836 114.456 827.339C76.5298 825.71 76.3376 826.691 65.0788 791.299C53.391 754.558 45.4587 717.368 53.427 678.62C62.9109 632.502 92.6044 600.992 131.079 576.718C161.313 557.643 192.751 540.432 223.54 522.204C283.86 486.495 317.347 437.704 301.971 365.111C299.856 355.124 305.104 347.71 312.224 340.157C320.135 347.974 321.516 357.729 324.278 366.69C340.899 420.612 330.1 466.893 286.641 505.531C258.301 530.726 227.546 551.907 193.561 568.622C170.888 579.772 149.982 593.605 130.051 608.791C107.819 625.73 91.3821 647.272 82.0619 673.686C72.7851 699.977 72.2561 726.645 81.0912 743.427C84.5999 728.749 84.1458 714.383 87.9958 700.644C102.921 647.382 139.956 613.684 188.063 589.807C215.161 576.357 242.319 563.114 266.888 545.306C356.966 480.016 376.621 392.156 321.517 300.138C318.936 295.828 317.485 289.851 310.326 288.815C309.041 300.952 308.203 312.34 306.578 323.617C299.996 369.297 271.066 398.183 225.874 404.177C209.259 406.38 192.552 407.892 175.907 409.884C152.537 412.68 131.165 419.487 117.047 439.899C112.432 446.572 105.473 449.576 98.1372 450.546C70.0397 454.259 43.2888 450.234 19.0591 434.751C9.34723 428.546 4.21473 420.124 5.29522 408.089C6.61095 393.435 7.64489 378.701 7.62038 364.003C7.60423 354.319 11.4156 348.07 18.5809 341.682C59.7211 305.006 93.9316 262.689 121.499 215.211C124.923 209.313 130.303 202.576 127.141 195.976C115.229 171.112 130.941 157.311 147.124 143.176C153.237 137.837 161.597 134.974 166.879 126.092C144.13 103.386 121.522 80.8214 96.7692 56.1159C121.718 45.9263 142.888 37.2802 165.567 28.0178C167.079 40.801 168.269 50.8685 169.788 63.7124C173.288 44.956 177.569 29.4597 183.853 14.5595C189.369 1.47815 194.179 0.540509 203.33 11.8113C225.897 39.6088 246.481 68.6923 254.357 104.299C256.525 114.103 261.086 115.993 270.655 115.587C315.587 113.678 360.009 117.439 403.665 128.94C486.955 150.884 543.744 200.673 571.435 282.021C584.218 319.573 588.439 358.355 588.988 397.467C589.541 436.894 587.483 476.327 579.368 515.248C581.754 509.334 583.383 503.288 584.857 497.205C600.155 434.114 602.821 370.834 587.356 307.37C566.271 220.844 516.784 158.043 430.195 127.585C381.375 110.412 330.797 103.325 278.853 107.728C271.731 108.332 263.376 111.182 262.774 98.974C261.583 74.8172 251.552 53.7154 238.73 33.606C235.915 29.1922 230.941 25.4404 232.258 18.6011C233.786 17.8563 235.32 16.611 237.008 16.3576C280.058 9.89296 323.224 7.95532 366.633 12.6885C374.454 13.5414 376.161 17.3555 377.162 24.2616C379.142 37.9085 378.832 52.1298 385.247 66.2799C390.582 52.8602 388.004 40.2375 389.214 27.9655C389.913 20.8821 391.602 15.107 400.983 16.7074C468.772 28.2717 531.236 51.7542 584.733 95.7468C591.778 101.54 591.572 106.375 586.392 113.157C581.664 119.348 578.16 126.448 572.632 135.604C581.928 131.935 586.202 127.505 589.889 122.947C598.538 112.253 605.323 113.341 614.366 123.329C644.85 156.999 668.631 194.681 685.843 236.354C698.564 267.153 696.402 261.05 672.764 275.475C671.332 276.349 670.16 277.639 665.906 281.245C677.585 278.502 685.683 274.711 693.505 275.203C705.537 275.959 700.259 289.701 706.153 295.688C706.153 348.228 706.153 400.767 705.994 455.601C698.877 477.366 698.918 477.085 677.435 474.083C667.776 472.732 657.915 471.032 647.608 473.517C660.002 480.833 673.685 482.58 686.246 487.453C693.567 490.293 696.142 494.037 693.765 502.152C682.986 538.954 668.285 574.135 650.781 608.271C646.951 615.74 642.729 617.029 635.327 612.862C629.008 609.304 623.444 602.781 613.417 604.644C617.126 613.578 624.531 617.008 630.604 621.51C637.355 626.514 638.747 631.76 634.559 639.26C617.905 669.082 599.592 697.903 581.259 726.724C576.911 733.56 572.014 735.07 565.109 730.368C558.209 725.669 550.918 721.522 544.086 716.733C534.7 710.154 528.619 712.613 525.105 722.882C521.535 733.315 516.918 743.586 514.929 754.318C510.973 775.669 512.148 796.133 527.786 814.044C563.695 855.173 589.824 902.369 610.764 952.152C618.596 970.772 622.488 974.915 629.493 984.863C629.487 987.345 630.887 985.964 629.493 989.001C626.688 988.726 621.088 989.001 614.089 989.001ZM356.126 625.608C334.115 655.311 316.296 686.769 313.3 724.402C316.606 711.13 320.159 698.001 326.682 685.603C345.564 649.711 371.365 619.002 399.198 589.79C433.966 553.3 460.215 512.239 471.391 462.687C485.052 402.115 484.631 343.142 451.525 287.853C442.29 272.429 430.548 258.934 416.97 247.114C421.767 255.648 428.043 263.065 433.103 271.216C490.473 363.641 480.096 483.44 407.81 565.054C390.643 584.438 372.571 603.063 356.126 625.608ZM504.081 951.542C437.002 953.535 369.923 955.528 299.17 957.629C311.934 965.722 314.421 966.453 326.064 964.608C364.897 958.453 403.989 959.205 443.109 959.714C484.093 960.248 525.083 960.319 566.071 960.474C571.534 960.494 578.896 961.209 576.414 952.247C572.106 936.691 564.897 922.383 555.758 909.113C556.035 917.732 557.817 925.817 558.477 933.989C559.408 945.529 554.971 952.308 541.657 951.526C530.056 950.844 518.376 951.456 504.081 951.542ZM486.639 60.8058C465.714 53.2173 444.845 45.4734 423.822 38.1576C419.021 36.4866 412.102 32.8451 410.472 41.6862C407.968 55.2695 406.501 69.0389 404.594 82.7293C414.34 75.3559 416.132 65.5471 417.627 55.6593C419.007 46.5283 423.566 42.7618 433.024 45.9394C440.493 48.449 448.13 50.4674 455.654 52.8233C481.002 60.7599 505.312 71.2963 529.463 82.2514C517.017 72.9415 502.526 67.8605 486.639 60.8058ZM49.39 348.019C80.9067 323.086 107.673 294.384 123.889 257.281C97.6087 293.45 70.7669 329.033 33.6749 355.584C29.2015 358.786 28.4471 363.548 32.2391 369.291C38.7944 362.765 40.0234 353.413 49.39 348.019ZM203.789 203.139C205.842 200.886 209.418 199.431 207.839 194.702C195.098 192.284 183.339 196.265 171.957 201.439C167.911 203.277 162.748 206.179 166.169 211.829C168.705 216.017 173.417 217.53 178.407 215.264C186.393 211.636 194.31 207.862 203.789 203.139ZM278.212 327.664C279.837 320.841 282.978 314.177 280.569 306.644C271.592 339.234 249.16 360.7 221.542 378.082C246.416 368.767 266.87 354.696 278.212 327.664ZM273.66 53.0293C275.215 57.816 276.771 62.6026 278.327 67.3892C277.165 34.5804 277.165 34.5804 305.979 29.0186C292.947 28.9811 279.948 29.1853 267.682 32.7403C266.853 40.8435 271.68 45.4168 273.66 53.0293ZM684.296 327.652C685.547 335.336 686.799 343.019 688.142 351.27C689.143 338.741 687.169 326.98 685.357 315.27C684.568 310.174 685.421 303.746 678.943 301.08C675.924 299.838 669.223 303.299 661.572 310.157C676.413 306.744 682.47 313.303 684.296 327.652ZM596.972 143.315C592.015 149.421 587.058 155.528 580.448 163.671C592.385 157.219 600.776 150.331 611.644 147.487C608.245 140.438 605.365 135.09 596.972 143.315ZM655.274 499.507C661.556 503.371 668.434 506.845 666.195 516.671C669.538 511.03 676.263 505.636 670.412 499.938C666.959 496.575 660.029 492.844 655.274 499.507ZM608.068 628.564C606.883 633.708 605.697 638.851 604.511 643.995C607.586 638.697 620.181 634.979 608.068 628.564Z"/>
</mask>
<path d="M614.089 989.001C387.254 989.001 238.486 989.001 11.0818 988.483C14.5204 985.639 18.546 983.718 18.6603 977.901C19.3016 945.253 34.1376 916.756 45.7478 887.225C50.7594 874.477 58.8013 869.985 72.1324 869.8C114.572 869.213 157 867.813 199.431 866.657C202.696 866.568 205.947 865.933 209.204 865.552C165.17 857.746 120.674 856.521 77.0911 848.762C77.1713 847.146 77.2515 845.53 77.3317 843.914C171.206 841.359 265.08 838.804 358.954 836.249C277.553 829.916 195.929 830.836 114.456 827.339C76.5298 825.71 76.3376 826.691 65.0788 791.299C53.391 754.558 45.4587 717.368 53.427 678.62C62.9109 632.502 92.6044 600.992 131.079 576.718C161.313 557.643 192.751 540.432 223.54 522.204C283.86 486.495 317.347 437.704 301.971 365.111C299.856 355.124 305.104 347.71 312.224 340.157C320.135 347.974 321.516 357.729 324.278 366.69C340.899 420.612 330.1 466.893 286.641 505.531C258.301 530.726 227.546 551.907 193.561 568.622C170.888 579.772 149.982 593.605 130.051 608.791C107.819 625.73 91.3821 647.272 82.0619 673.686C72.7851 699.977 72.2561 726.645 81.0912 743.427C84.5999 728.749 84.1458 714.383 87.9958 700.644C102.921 647.382 139.956 613.684 188.063 589.807C215.161 576.357 242.319 563.114 266.888 545.306C356.966 480.016 376.621 392.156 321.517 300.138C318.936 295.828 317.485 289.851 310.326 288.815C309.041 300.952 308.203 312.34 306.578 323.617C299.996 369.297 271.066 398.183 225.874 404.177C209.259 406.38 192.552 407.892 175.907 409.884C152.537 412.68 131.165 419.487 117.047 439.899C112.432 446.572 105.473 449.576 98.1372 450.546C70.0397 454.259 43.2888 450.234 19.0591 434.751C9.34723 428.546 4.21473 420.124 5.29522 408.089C6.61095 393.435 7.64489 378.701 7.62038 364.003C7.60423 354.319 11.4156 348.07 18.5809 341.682C59.7211 305.006 93.9316 262.689 121.499 215.211C124.923 209.313 130.303 202.576 127.141 195.976C115.229 171.112 130.941 157.311 147.124 143.176C153.237 137.837 161.597 134.974 166.879 126.092C144.13 103.386 121.522 80.8214 96.7692 56.1159C121.718 45.9263 142.888 37.2802 165.567 28.0178C167.079 40.801 168.269 50.8685 169.788 63.7124C173.288 44.956 177.569 29.4597 183.853 14.5595C189.369 1.47815 194.179 0.540509 203.33 11.8113C225.897 39.6088 246.481 68.6923 254.357 104.299C256.525 114.103 261.086 115.993 270.655 115.587C315.587 113.678 360.009 117.439 403.665 128.94C486.955 150.884 543.744 200.673 571.435 282.021C584.218 319.573 588.439 358.355 588.988 397.467C589.541 436.894 587.483 476.327 579.368 515.248C581.754 509.334 583.383 503.288 584.857 497.205C600.155 434.114 602.821 370.834 587.356 307.37C566.271 220.844 516.784 158.043 430.195 127.585C381.375 110.412 330.797 103.325 278.853 107.728C271.731 108.332 263.376 111.182 262.774 98.974C261.583 74.8172 251.552 53.7154 238.73 33.606C235.915 29.1922 230.941 25.4404 232.258 18.6011C233.786 17.8563 235.32 16.611 237.008 16.3576C280.058 9.89296 323.224 7.95532 366.633 12.6885C374.454 13.5414 376.161 17.3555 377.162 24.2616C379.142 37.9085 378.832 52.1298 385.247 66.2799C390.582 52.8602 388.004 40.2375 389.214 27.9655C389.913 20.8821 391.602 15.107 400.983 16.7074C468.772 28.2717 531.236 51.7542 584.733 95.7468C591.778 101.54 591.572 106.375 586.392 113.157C581.664 119.348 578.16 126.448 572.632 135.604C581.928 131.935 586.202 127.505 589.889 122.947C598.538 112.253 605.323 113.341 614.366 123.329C644.85 156.999 668.631 194.681 685.843 236.354C698.564 267.153 696.402 261.05 672.764 275.475C671.332 276.349 670.16 277.639 665.906 281.245C677.585 278.502 685.683 274.711 693.505 275.203C705.537 275.959 700.259 289.701 706.153 295.688C706.153 348.228 706.153 400.767 705.994 455.601C698.877 477.366 698.918 477.085 677.435 474.083C667.776 472.732 657.915 471.032 647.608 473.517C660.002 480.833 673.685 482.58 686.246 487.453C693.567 490.293 696.142 494.037 693.765 502.152C682.986 538.954 668.285 574.135 650.781 608.271C646.951 615.74 642.729 617.029 635.327 612.862C629.008 609.304 623.444 602.781 613.417 604.644C617.126 613.578 624.531 617.008 630.604 621.51C637.355 626.514 638.747 631.76 634.559 639.26C617.905 669.082 599.592 697.903 581.259 726.724C576.911 733.56 572.014 735.07 565.109 730.368C558.209 725.669 550.918 721.522 544.086 716.733C534.7 710.154 528.619 712.613 525.105 722.882C521.535 733.315 516.918 743.586 514.929 754.318C510.973 775.669 512.148 796.133 527.786 814.044C563.695 855.173 589.824 902.369 610.764 952.152C618.596 970.772 622.488 974.915 629.493 984.863C629.487 987.345 630.887 985.964 629.493 989.001C626.688 988.726 621.088 989.001 614.089 989.001ZM356.126 625.608C334.115 655.311 316.296 686.769 313.3 724.402C316.606 711.13 320.159 698.001 326.682 685.603C345.564 649.711 371.365 619.002 399.198 589.79C433.966 553.3 460.215 512.239 471.391 462.687C485.052 402.115 484.631 343.142 451.525 287.853C442.29 272.429 430.548 258.934 416.97 247.114C421.767 255.648 428.043 263.065 433.103 271.216C490.473 363.641 480.096 483.44 407.81 565.054C390.643 584.438 372.571 603.063 356.126 625.608ZM504.081 951.542C437.002 953.535 369.923 955.528 299.17 957.629C311.934 965.722 314.421 966.453 326.064 964.608C364.897 958.453 403.989 959.205 443.109 959.714C484.093 960.248 525.083 960.319 566.071 960.474C571.534 960.494 578.896 961.209 576.414 952.247C572.106 936.691 564.897 922.383 555.758 909.113C556.035 917.732 557.817 925.817 558.477 933.989C559.408 945.529 554.971 952.308 541.657 951.526C530.056 950.844 518.376 951.456 504.081 951.542ZM486.639 60.8058C465.714 53.2173 444.845 45.4734 423.822 38.1576C419.021 36.4866 412.102 32.8451 410.472 41.6862C407.968 55.2695 406.501 69.0389 404.594 82.7293C414.34 75.3559 416.132 65.5471 417.627 55.6593C419.007 46.5283 423.566 42.7618 433.024 45.9394C440.493 48.449 448.13 50.4674 455.654 52.8233C481.002 60.7599 505.312 71.2963 529.463 82.2514C517.017 72.9415 502.526 67.8605 486.639 60.8058ZM49.39 348.019C80.9067 323.086 107.673 294.384 123.889 257.281C97.6087 293.45 70.7669 329.033 33.6749 355.584C29.2015 358.786 28.4471 363.548 32.2391 369.291C38.7944 362.765 40.0234 353.413 49.39 348.019ZM203.789 203.139C205.842 200.886 209.418 199.431 207.839 194.702C195.098 192.284 183.339 196.265 171.957 201.439C167.911 203.277 162.748 206.179 166.169 211.829C168.705 216.017 173.417 217.53 178.407 215.264C186.393 211.636 194.31 207.862 203.789 203.139ZM278.212 327.664C279.837 320.841 282.978 314.177 280.569 306.644C271.592 339.234 249.16 360.7 221.542 378.082C246.416 368.767 266.87 354.696 278.212 327.664ZM273.66 53.0293C275.215 57.816 276.771 62.6026 278.327 67.3892C277.165 34.5804 277.165 34.5804 305.979 29.0186C292.947 28.9811 279.948 29.1853 267.682 32.7403C266.853 40.8435 271.68 45.4168 273.66 53.0293ZM684.296 327.652C685.547 335.336 686.799 343.019 688.142 351.27C689.143 338.741 687.169 326.98 685.357 315.27C684.568 310.174 685.421 303.746 678.943 301.08C675.924 299.838 669.223 303.299 661.572 310.157C676.413 306.744 682.47 313.303 684.296 327.652ZM596.972 143.315C592.015 149.421 587.058 155.528 580.448 163.671C592.385 157.219 600.776 150.331 611.644 147.487C608.245 140.438 605.365 135.09 596.972 143.315ZM655.274 499.507C661.556 503.371 668.434 506.845 666.195 516.671C669.538 511.03 676.263 505.636 670.412 499.938C666.959 496.575 660.029 492.844 655.274 499.507ZM608.068 628.564C606.883 633.708 605.697 638.851 604.511 643.995C607.586 638.697 620.181 634.979 608.068 628.564Z" stroke="#3E4054" stroke-opacity="0.05" stroke-width="8" mask="url(#path-1-outside-1_118_4)"/>
</svg>
